<svg width="277" height="35" xmlns="http://www.w3.org/2000/svg" viewBox="0 0 277 35" x="0" y="0">
<g fill="#0865e7">
   <path d="m3.161132,32.360706c-1.944703,-1.944703 -2.98698,-4.580739 -3.121552,-7.902831c-0.026387,-0.810073 -0.03958,-2.079276 -0.03958,-3.810246c0,-1.754719 0.013193,-3.02656 0.03958,-3.810246c0.108186,-3.295705 1.139907,-5.910631 3.100443,-7.842141c1.957897,-1.93151 4.694202,-2.897265 8.206278,-2.897265c2.377446,0 4.390755,0.432743 6.039926,1.298228c1.646533,0.865485 2.891987,1.899846 3.728447,3.100443c0.83646,1.203236 1.282396,2.316756 1.337808,3.343201l0,0.081799c0,0.216371 -0.087076,0.39844 -0.263867,0.546206c-0.176791,0.147766 -0.372053,0.221649 -0.588424,0.221649l-2.26926,0c-0.242758,0 -0.424827,-0.052773 -0.546206,-0.160959c-0.121379,-0.108186 -0.237481,-0.311364 -0.345666,-0.606895c-0.432743,-1.269203 -1.229622,-2.337866 -2.390639,-3.200712c-1.161017,-0.865485 -2.72839,-1.298228 -4.702118,-1.298228c-2.26926,0 -4.053004,0.622727 -5.351232,1.865543c-1.298228,1.242816 -1.986922,3.161132 -2.066082,5.754949c-0.026387,0.783686 -0.03958,1.986922 -0.03958,3.607068c0,1.593759 0.013193,2.796995 0.03958,3.607068c0.081799,2.620204 0.770493,4.554352 2.066082,5.797168c1.298228,1.242816 3.079333,1.865543 5.351232,1.865543c2.295647,0 4.134803,-0.628005 5.512191,-1.884014c1.377388,-1.256009 2.066082,-3.140023 2.066082,-5.65468l0,-1.744164l-6.200885,0c-0.269145,0 -0.493432,-0.094992 -0.667585,-0.284977c-0.176791,-0.189985 -0.263867,-0.419549 -0.263867,-0.688694l0,-1.216429c0,-0.269145 0.087076,-0.49871 0.263867,-0.688694c0.176791,-0.187346 0.39844,-0.284977 0.667585,-0.284977l9.07968,0c0.295532,0 0.533012,0.087076 0.709803,0.263867c0.176791,0.176791 0.263867,0.411633 0.263867,0.709803l0,3.849826c0,2.1901 -0.453852,4.113694 -1.358917,5.776059c-0.905065,1.662365 -2.221764,2.944761 -3.952735,3.849826c-1.728332,0.905065 -3.768027,1.358917 -6.119087,1.358917c-3.512076,-0.002639 -6.240466,-0.973671 -8.185169,-2.921013z"/>
   <path d="m29.830217,32.706373c-1.649172,-1.715139 -2.554237,-4.058282 -2.715196,-7.032068l-0.03958,-1.377388l0.03958,-1.337808c0.160959,-2.918374 1.066025,-5.243047 2.715196,-6.971378c1.646533,-1.728332 3.849826,-2.593817 6.607241,-2.593817c2.971148,0 5.274711,0.947284 6.910689,2.836575c1.63334,1.89193 2.451329,4.45936 2.451329,7.702291l0,0.730913c0,0.269145 -0.087076,0.493432 -0.263867,0.667585c-0.176791,0.176791 -0.39844,0.263867 -0.667585,0.263867l-14.064136,0l0,0.364137c0.081799,1.757357 0.622727,3.256125 1.620146,4.49894c1.000058,1.242816 2.324672,1.865543 3.971205,1.865543c1.269203,0 2.303563,-0.250674 3.100443,-0.749384c0.79688,-0.49871 1.398498,-1.018528 1.804853,-1.559457c0.242758,-0.324557 0.432743,-0.519819 0.567315,-0.588424c0.134572,-0.065967 0.364137,-0.10027 0.688694,-0.10027l1.783744,0c0.242758,0 0.451213,0.068606 0.628005,0.203178c0.176791,0.134572 0.263867,0.311364 0.263867,0.527735c0,0.593702 -0.364137,1.311421 -1.09505,2.147881c-0.728274,0.839099 -1.762635,1.559457 -3.100443,2.168991c-1.337808,0.606895 -2.870878,0.912981 -4.59921,0.912981c-2.757415,-0.007916 -4.960708,-0.865485 -6.607241,-2.580624zm12.280392,-9.871282l0,-0.121379c0,-1.89193 -0.514542,-3.430277 -1.540986,-4.620319c-1.026444,-1.187404 -2.406471,-1.783744 -4.134803,-1.783744c-1.757357,0 -3.134746,0.593702 -4.134803,1.783744c-1.000058,1.190042 -1.498767,2.72839 -1.498767,4.620319l0,0.121379l11.30936,0z"/>
   <path d="m52.425188,32.767062c-1.606953,-1.675558 -2.467161,-3.905239 -2.572708,-6.68904l-0.03958,-1.741525l0.03958,-1.744164c0.108186,-2.783802 0.978948,-5.010843 2.614927,-6.686402c1.63334,-1.675558 3.910516,-2.512018 6.82889,-2.512018c2.918374,0 5.192912,0.839099 6.82889,2.512018c1.63334,1.675558 2.506741,3.905239 2.614927,6.686402c0.052773,0.593702 0.081799,1.17421 0.081799,1.744164s-0.026387,1.147823 -0.081799,1.741525c-0.108186,2.783802 -0.965755,5.013482 -2.572708,6.68904c-1.606953,1.675558 -3.897322,2.512018 -6.871109,2.512018c-2.973786,0 -5.264156,-0.83646 -6.871109,-2.512018zm10.984803,-2.168991c1.013251,-1.09505 1.559457,-2.6677 1.641256,-4.720589c0.026387,-0.269145 0.03958,-0.783686 0.03958,-1.540986c0,-0.7573 -0.013193,-1.269203 -0.03958,-1.540986c-0.081799,-2.052889 -0.628005,-3.628178 -1.641256,-4.720589s-2.385362,-1.641256 -4.113694,-1.641256c-1.728332,0 -3.100443,0.546206 -4.113694,1.641256c-1.013251,1.09505 -1.559457,2.6677 -1.641256,4.720589l-0.03958,1.540986l0.03958,1.540986c0.081799,2.052889 0.628005,3.628178 1.641256,4.720589c1.013251,1.09505 2.385362,1.641256 4.113694,1.641256c1.728332,0 3.100443,-0.546206 4.113694,-1.641256z"/>
   <path d="m74.911974,34.54289c-0.221649,-0.221649 -0.332473,-0.488155 -0.332473,-0.804796l0,-30.824997c0,-0.345666 0.102908,-0.630643 0.308725,-0.852292c0.203178,-0.221649 0.480239,-0.332473 0.828544,-0.332473l3.833994,0c0.598979,0 1.073941,0.300809 1.419607,0.899788l9.13773,16.950846l9.13773,-16.950846c0.348305,-0.598979 0.820628,-0.899788 1.419607,-0.899788l3.789137,0c0.345666,0 0.630643,0.110824 0.852292,0.332473c0.221649,0.221649 0.332473,0.506626 0.332473,0.852292l0,30.824997c0,0.348305 -0.110824,0.622727 -0.332473,0.828544c-0.221649,0.205817 -0.506626,0.308725 -0.852292,0.308725l-4.071475,0c-0.316641,0 -0.585786,-0.110824 -0.804796,-0.332473c-0.221649,-0.221649 -0.332473,-0.488155 -0.332473,-0.804796l0,-20.360014l-6.580855,12.499402c-0.348305,0.693971 -0.868124,1.042276 -1.562095,1.042276l-1.989561,0c-0.662307,0 -1.200597,-0.348305 -1.609592,-1.042276l-6.580855,-12.499402l0,20.360014c0,0.316641 -0.102908,0.585786 -0.308725,0.804796c-0.205817,0.221649 -0.482877,0.332473 -0.828544,0.332473l-4.068836,0c-0.314002,0 -0.583147,-0.110824 -0.804796,-0.332473z"/>
   <path d="m115.183426,34.376654c-1.343085,-0.646475 -2.398555,-1.522515 -3.171687,-2.62812c-0.773132,-1.105605 -1.161017,-2.319395 -1.161017,-3.646648c0,-2.145243 0.868124,-3.88149 2.604372,-5.208744c1.736248,-1.324615 4.118971,-2.224403 7.150808,-2.699364l6.485862,-0.947284l0,-0.99478c0,-1.356279 -0.348305,-2.382723 -1.042276,-3.076695c-0.693971,-0.693971 -1.799576,-1.042276 -3.314175,-1.042276c-1.042276,0 -1.878736,0.189985 -2.50938,0.567315c-0.630643,0.379969 -1.145185,0.765216 -1.538347,1.161017c-0.395801,0.395801 -0.654391,0.654391 -0.781048,0.781048c-0.126656,0.37733 -0.364137,0.567315 -0.709803,0.567315l-3.694145,0c-0.284977,0 -0.527735,-0.094992 -0.733552,-0.284977c-0.205817,-0.189985 -0.306086,-0.440659 -0.306086,-0.7573c0.031664,-0.788964 0.416911,-1.680836 1.161017,-2.675616c0.741468,-0.99478 1.886652,-1.862904 3.432916,-2.604372c1.546263,-0.741468 3.456664,-1.113521 5.728563,-1.113521c3.72317,0 6.438366,0.83646 8.14295,2.50938c1.704584,1.67292 2.556876,3.868297 2.556876,6.580855l0,14.866293c0,0.316641 -0.102908,0.585786 -0.306086,0.804796c-0.205817,0.221649 -0.482877,0.332473 -0.828544,0.332473l-3.928987,0c-0.316641,0 -0.585786,-0.110824 -0.804796,-0.332473c-0.221649,-0.221649 -0.332473,-0.488155 -0.332473,-0.804796l0,-1.847072c-0.693971,1.010612 -1.67292,1.839156 -2.936845,2.485632c-1.263925,0.646475 -2.841853,0.971032 -4.733782,0.971032c-1.614869,0.007916 -3.089888,-0.316641 -4.430335,-0.963116zm10.298747,-5.279988c1.105605,-1.137269 1.657088,-2.778524 1.657088,-4.923767l0,-0.947284l-4.733782,0.7573c-3.630816,0.567315 -5.446225,1.783744 -5.446225,3.646648c0,1.010612 0.416911,1.79166 1.256009,2.343143c0.83646,0.551483 1.839156,0.828544 3.00545,0.828544c1.733609,0 3.155855,-0.567315 4.26146,-1.704584z"/>
   <path d="m139.873505,34.54289c-0.221649,-0.221649 -0.329834,-0.488155 -0.329834,-0.804796l0,-22.302078c0,-0.348305 0.110824,-0.630643 0.329834,-0.852292c0.221649,-0.221649 0.488155,-0.332473 0.804796,-0.332473l3.884129,0c0.345666,0 0.630643,0.110824 0.852292,0.332473c0.221649,0.221649 0.332473,0.503987 0.332473,0.852292l0,1.942065c1.577927,-2.081914 3.849826,-3.124191 6.818335,-3.124191l1.989561,0c0.348305,0 0.622727,0.102908 0.828544,0.308725c0.205817,0.205817 0.308725,0.482877 0.308725,0.828544l0,3.456664c0,0.316641 -0.102908,0.585786 -0.308725,0.804796c-0.205817,0.221649 -0.482877,0.332473 -0.828544,0.332473l-3.741641,0c-1.482935,0 -2.651868,0.424827 -3.50416,1.277119c-0.852292,0.852292 -1.277119,2.021225 -1.277119,3.50416l0,12.974363c0,0.316641 -0.110824,0.585786 -0.332473,0.804796c-0.221649,0.221649 -0.490793,0.332473 -0.804796,0.332473l-4.213963,0c-0.316641,-0.002639 -0.585786,-0.113463 -0.807434,-0.335112z"/>
   <path d="m159.761196,34.54289c-0.221649,-0.221649 -0.332473,-0.488155 -0.332473,-0.804796l0,-31.344816c0,-0.345666 0.110824,-0.622727 0.332473,-0.828544c0.221649,-0.205817 0.488155,-0.308725 0.804796,-0.308725l3.928987,0c0.314002,0 0.583147,0.110824 0.804796,0.332473c0.221649,0.221649 0.332473,0.490793 0.332473,0.804796l0,16.193546l7.860612,-7.528139c0.094992,-0.063328 0.245397,-0.182069 0.448575,-0.356221c0.205817,-0.174153 0.403717,-0.290254 0.591063,-0.356221c0.189985,-0.063328 0.424827,-0.094992 0.709803,-0.094992l4.49894,0c0.314002,0 0.567315,0.094992 0.7573,0.284977c0.189985,0.189985 0.284977,0.443297 0.284977,0.7573c0,0.284977 -0.15832,0.567315 -0.472323,0.852292l-9.660188,9.13773l10.842314,11.742102c0.284977,0.284977 0.424827,0.551483 0.424827,0.804796c0,0.316641 -0.094992,0.567315 -0.284977,0.7573c-0.189985,0.189985 -0.427465,0.284977 -0.709803,0.284977l-4.591294,0c-0.443297,0 -0.765216,-0.055412 -0.971032,-0.166237c-0.205817,-0.110824 -0.467045,-0.321918 -0.781048,-0.638559l-8.947746,-9.5177l0,9.185227c0,0.316641 -0.110824,0.585786 -0.332473,0.804796c-0.221649,0.221649 -0.490793,0.332473 -0.804796,0.332473l-3.928987,0c-0.316641,0.002639 -0.585786,-0.108186 -0.804796,-0.329834z"/>
   <path d="m186.678317,32.318487c-2.068721,-2.018586 -3.163771,-4.892103 -3.290427,-8.617911l-0.047496,-1.184765c0,-3.944819 1.03436,-7.055816 3.100443,-9.327715c2.066082,-2.271899 4.931683,-3.409168 8.594163,-3.409168c3.754834,0 6.652099,1.137269 8.689156,3.409168c2.037057,2.271899 3.052947,5.303736 3.052947,9.090234l0,0.99478c0,0.316641 -0.110824,0.585786 -0.329834,0.804796c-0.221649,0.221649 -0.506626,0.332473 -0.852292,0.332473l-15.718585,0l0,0.379969c0.063328,1.767912 0.543567,3.227099 1.443355,4.3802c0.899788,1.153101 2.137326,1.728332 3.717893,1.728332c1.799576,0 3.266679,-0.725636 4.403948,-2.176907c0.284977,-0.348305 0.503987,-0.559399 0.662307,-0.638559c0.15832,-0.07916 0.424827,-0.11874 0.804796,-0.11874l4.166467,0c0.284977,0 0.527735,0.07916 0.733552,0.237481c0.203178,0.15832 0.306086,0.379969 0.306086,0.662307c0,0.7573 -0.448575,1.649172 -1.348363,2.675616c-0.899788,1.026444 -2.187461,1.918316 -3.860381,2.675616c-1.67292,0.7573 -3.614984,1.137269 -5.823555,1.137269c-3.535824,-0.005277 -6.338097,-1.01589 -8.404179,-3.034476zm13.565426,-11.932087l0,-0.094992c0,-1.862904 -0.467045,-3.353755 -1.395859,-4.475192c-0.931452,-1.121437 -2.200655,-1.680836 -3.810246,-1.680836c-1.609592,0 -2.873517,0.559399 -3.789137,1.680836c-0.91562,1.121437 -1.372111,2.612288 -1.372111,4.475192l0,0.094992l10.367353,0z"/>
   <path d="m216.387155,32.624574c-1.451271,-1.498767 -2.176907,-3.699422 -2.176907,-6.604603l0,-10.699826l-3.741641,0c-0.316641,0 -0.585786,-0.110824 -0.804796,-0.332473c-0.221649,-0.221649 -0.332473,-0.488155 -0.332473,-0.804796l0,-2.794356c0,-0.314002 0.110824,-0.583147 0.332473,-0.804796c0.221649,-0.221649 0.488155,-0.332473 0.804796,-0.332473l3.741641,0l0,-7.860612c0,-0.345666 0.110824,-0.622727 0.332473,-0.828544c0.221649,-0.205817 0.488155,-0.308725 0.804796,-0.308725l3.928987,0c0.348305,0 0.622727,0.102908 0.828544,0.308725c0.203178,0.205817 0.306086,0.482877 0.306086,0.828544l0,7.860612l5.918547,0c0.314002,0 0.583147,0.110824 0.804796,0.332473c0.221649,0.221649 0.332473,0.490793 0.332473,0.804796l0,2.794356c0,0.316641 -0.110824,0.585786 -0.332473,0.804796c-0.221649,0.221649 -0.490793,0.332473 -0.804796,0.332473l-5.918547,0l0,10.180007c0,1.356279 0.237481,2.382723 0.709803,3.076695c0.472323,0.693971 1.245454,1.042276 2.319395,1.042276l3.314175,0c0.348305,0 0.622727,0.102908 0.828544,0.308725c0.205817,0.205817 0.308725,0.482877 0.308725,0.828544l0,2.981702c0,0.316641 -0.102908,0.585786 -0.308725,0.804796c-0.205817,0.221649 -0.482877,0.332473 -0.828544,0.332473l-3.878852,0c-2.873517,0 -5.03723,-0.749384 -6.488501,-2.250789z"/>
   <path d="m250.964347,30.260321c0,2.54896 -2.066082,4.615042 -4.615042,4.615042c-2.54896,0 -4.615042,-2.066082 -4.615042,-4.615042c0,-2.54896 2.066082,-4.615042 4.615042,-4.615042c2.54896,0 4.615042,2.066082 4.615042,4.615042"/>
   <path d="m265.382066,30.260321c0,2.54896 -2.066082,4.615042 -4.615042,4.615042s-4.615042,-2.066082 -4.615042,-4.615042c0,-2.54896 2.066082,-4.615042 4.615042,-4.615042s4.615042,2.066082 4.615042,4.615042"/>
   <path d="m275.416945,8.931914l-7.0479,-7.214137c-0.335112,-0.411633 -0.812712,-0.825905 -1.298228,-1.131991c-0.588424,-0.369414 -1.282396,-0.585786 -2.029141,-0.585786l-8.232665,0l-11.784321,0c-2.11094,0 -3.820801,1.709861 -3.820801,3.820801l0,15.478466c0,2.11094 1.709861,3.820801 3.820801,3.820801l11.784321,0l8.232665,0c0.746745,0 1.440716,-0.216371 2.029141,-0.585786c0.488155,-0.306086 0.897149,-0.659669 1.298228,-1.137269l7.0479,-7.208859c1.451271,-1.45391 1.451271,-3.804969 0,-5.25624"/>
</g>
</svg>